<svg xmlns="http://www.w3.org/2000/svg" viewBox="0 0 164 44" width="164" height="44">
	<style>
		tspan { white-space:pre }
		.shp0 { fill: #ffffff } 
	</style>
	<path id="logo копия 2" class="shp0" d="M21.94 19.77L11.12 2L2 2L2 42L11.12 42L11.12 18.74L21.43 35.71L22.45 35.71L32.76 18.74L32.76 42L41.88 42L41.88 2L32.76 2L21.94 19.77ZM59.54 23.71L59.54 2L50.43 2L50.43 42L57.26 42L72.64 20.29L72.64 42L81.76 42L81.76 2L74.92 2L59.54 23.71ZM149.44 2L137.82 2L124.26 42L134.23 42L136.22 35.71L151.04 35.71L153.03 42L163 42L149.44 2ZM138.96 27.14L143.63 12.46L148.3 27.14L138.96 27.14ZM101.41 21.01C106.31 21.17 111.26 19.38 115 15.63C118.74 11.88 120.52 6.92 120.37 2.01C115.47 1.85 110.52 3.64 106.78 7.39C103.04 11.14 101.26 16.1 101.41 21.01ZM101.41 22.99C101.26 27.9 103.04 32.86 106.78 36.61C110.52 40.36 115.47 42.15 120.37 41.99C120.52 37.08 118.74 32.12 115 28.37C111.26 24.62 106.31 22.83 101.41 22.99ZM90.23 42L99.35 42L99.35 2L90.23 2L90.23 42Z" />
</svg>