<svg xmlns="http://www.w3.org/2000/svg" viewBox="0 0 512 512" width="512" height="512">
	<style>
		tspan { white-space:pre }
		.shp0 { fill: #c8c8c8 } 
	</style>
	<path id="Layer" fill-rule="evenodd" class="shp0" d="M256 512C114.84 512 0 397.16 0 256C0 114.84 114.84 0 256 0C397.16 0 512 114.84 512 256C512 397.16 397.16 512 256 512ZM256 36.57C135.01 36.57 36.57 135.01 36.57 256C36.57 376.99 135.01 475.43 256 475.43C376.99 475.43 475.43 376.99 475.43 256C475.43 135.01 376.99 36.57 256 36.57Z" />
	<path id="Layer" class="shp0" d="M347.43 365.71C342.75 365.71 338.07 363.93 334.5 360.36L151.64 177.5C144.5 170.36 144.5 158.79 151.64 151.64C158.79 144.5 170.36 144.5 177.5 151.64L360.36 334.5C367.5 341.64 367.5 353.21 360.36 360.36C356.79 363.93 352.11 365.71 347.43 365.71L347.43 365.71Z" />
	<path id="Layer" class="shp0" d="M164.57 365.71C159.89 365.71 155.21 363.93 151.64 360.36C144.5 353.21 144.5 341.64 151.64 334.5L334.5 151.64C341.64 144.5 353.21 144.5 360.36 151.64C367.5 158.79 367.5 170.36 360.36 177.5L177.5 360.36C173.93 363.93 169.25 365.71 164.57 365.71L164.57 365.71Z" />
</svg>