<svg xmlns="http://www.w3.org/2000/svg" viewBox="0 0 512 356" width="512" height="356">
	<style>
		tspan { white-space:pre }
		.shp0 { fill: #c8c8c8 } 
	</style>
	<g id="Layer">
		<path id="Layer" fill-rule="evenodd" class="shp0" d="M466 354L46 354C20.64 354 0 333.36 0 308L0 48C0 22.64 20.64 2 46 2L466 2C491.36 2 512 22.64 512 48L512 308C512 333.36 491.36 354 466 354ZM46 34C38.28 34 32 40.28 32 48L32 308C32 315.72 38.28 322 46 322L466 322C473.72 322 480 315.72 480 308L480 48C480 40.28 473.72 34 466 34L46 34Z" />
		<path id="Layer" class="shp0" d="M365.7 223.71C362.23 223.71 358.74 222.59 355.8 220.27C348.87 214.8 347.67 204.74 353.14 197.8C357.63 192.12 360 185.27 360 178C360 170.73 357.63 163.88 353.14 158.19C347.67 151.26 348.87 141.19 355.81 135.72C362.74 130.25 372.81 131.44 378.28 138.38C387.13 149.61 392 163.68 392 178C392 192.32 387.13 206.39 378.27 217.61C375.12 221.62 370.43 223.71 365.7 223.71L365.7 223.71Z" />
		<path id="Layer" class="shp0" d="M405.43 263.43C401.62 263.43 397.8 262.08 394.74 259.34C388.17 253.44 387.62 243.32 393.52 236.74C408.02 220.59 416 199.73 416 178C416 156.27 408.02 135.41 393.52 119.26C387.62 112.68 388.17 102.56 394.74 96.66C401.32 90.76 411.44 91.31 417.34 97.88C437.11 119.92 448 148.37 448 178C448 207.63 437.11 236.08 417.34 258.12C414.18 261.64 409.81 263.43 405.42 263.43L405.43 263.43Z" />
		<path id="Layer" fill-rule="evenodd" class="shp0" d="M124 178L100 178C80.15 178 64 161.85 64 142L64 118C64 98.15 80.15 82 100 82L124 82C143.85 82 160 98.15 160 118L160 142C160 161.85 143.85 178 124 178ZM100 114C97.79 114 96 115.79 96 118L96 142C96 144.21 97.79 146 100 146L124 146C126.21 146 128 144.21 128 142L128 118C128 115.79 126.21 114 124 114L100 114Z" />
	</g>
</svg>