<svg xmlns="http://www.w3.org/2000/svg" viewBox="0 0 512 512" width="53" height="53">
	<style>
		tspan { white-space:pre }
		.shp0 { fill: #00c4f1 } 
	</style>
	<g id="Layer">
		<g id="Layer">
			<path id="Layer" class="shp0" d="M496 320C487.17 320 480 327.16 480 336L480 448L32 448L32 256L208 256C216.83 256 224 248.83 224 240C224 231.16 216.83 224 208 224L32 224L32 160L208 160C216.83 160 224 152.83 224 144C224 135.16 216.83 128 208 128L32 128C14.34 128 0 142.33 0 160L0 448C0 465.66 14.34 480 32 480L480 480C497.66 480 512 465.66 512 448L512 336C512 327.16 504.83 320 496 320Z" />
		</g>
	</g>
	<g id="Layer">
		<g id="Layer">
			<path id="Layer" class="shp0" d="M144 320L80 320C71.17 320 64 327.16 64 336C64 344.83 71.17 352 80 352L144 352C152.83 352 160 344.83 160 336C160 327.16 152.83 320 144 320Z" />
		</g>
	</g>
	<g id="Layer">
		<g id="Layer">
			<path id="Layer" fill-rule="evenodd" class="shp0" d="M512 96L512 160C512 248.16 479.46 299.61 391.97 349.88C389.5 351.29 386.75 352 384 352C381.25 352 378.5 351.29 376.03 349.88C288.54 299.48 256 248.03 256 160L256 96C256 89.6 259.81 83.8 265.66 81.28L377.66 33.28C381.73 31.58 386.24 31.58 390.3 33.28L502.3 81.28C508.19 83.8 512 89.6 512 96ZM480 106.56L384 65.4L288 106.56L288 160C288 233.79 312.45 274.46 384 317.44C455.55 274.56 480 233.88 480 160L480 106.56Z" />
		</g>
	</g>
	<g id="Layer">
		<g id="Layer">
			<path id="Layer" class="shp0" d="M442.02 131.48C435.14 126.04 425.09 127.1 419.52 133.98L369.22 196.89L349.31 167.13C344.35 159.77 334.4 157.82 327.14 162.68C319.81 167.58 317.79 177.53 322.69 184.86L354.69 232.86C357.54 237.12 362.21 239.74 367.33 240C367.55 240 367.81 240 368 240C372.83 240 377.44 237.82 380.51 233.98L444.51 153.98C450.02 147.07 448.93 137.02 442.02 131.48Z" />
		</g>
	</g>
	<g id="Layer">
	</g>
	<g id="Layer">
	</g>
	<g id="Layer">
	</g>
	<g id="Layer">
	</g>
	<g id="Layer">
	</g>
	<g id="Layer">
	</g>
	<g id="Layer">
	</g>
	<g id="Layer">
	</g>
	<g id="Layer">
	</g>
	<g id="Layer">
	</g>
	<g id="Layer">
	</g>
	<g id="Layer">
	</g>
	<g id="Layer">
	</g>
	<g id="Layer">
	</g>
	<g id="Layer">
	</g>
</svg>