<svg xmlns="http://www.w3.org/2000/svg" viewBox="0 0 19 19" width="19" height="19">
	<style>
		tspan { white-space:pre }
		.shp0 { fill: #df3b3b } 
	</style>
	<path id="Layer" fill-rule="evenodd" class="shp0" d="M9.5 19C4.26 19 0 14.74 0 9.5C0 4.26 4.26 0 9.5 0C14.74 0 19 4.26 19 9.5C19 14.74 14.74 19 9.5 19ZM9.5 1.36C5.01 1.36 1.36 5.01 1.36 9.5C1.36 13.99 5.01 17.64 9.5 17.64C13.99 17.64 17.64 13.99 17.64 9.5C17.64 5.01 13.99 1.36 9.5 1.36Z" />
	<path id="Layer" class="shp0" d="M12.89 13.57C12.72 13.57 12.55 13.51 12.41 13.37L5.63 6.59C5.36 6.32 5.36 5.89 5.63 5.63C5.89 5.36 6.32 5.36 6.59 5.63L13.37 12.41C13.64 12.68 13.64 13.11 13.37 13.37C13.24 13.51 13.07 13.57 12.89 13.57L12.89 13.57Z" />
	<path id="Layer" class="shp0" d="M6.11 13.57C5.93 13.57 5.76 13.51 5.63 13.37C5.36 13.11 5.36 12.68 5.63 12.41L12.41 5.63C12.68 5.36 13.11 5.36 13.37 5.63C13.64 5.89 13.64 6.32 13.37 6.59L6.59 13.37C6.45 13.51 6.28 13.57 6.11 13.57L6.11 13.57Z" />
</svg>