<svg xmlns="http://www.w3.org/2000/svg" viewBox="0 0 512 512" width="512" height="512">
	<style>
		tspan { white-space:pre }
		.shp0 { fill: #000000 } 
	</style>
	<path id="Layer" fill-rule="evenodd" class="shp0" d="M438.73 76.66C597.8 238.93 481.01 513.86 253.78 512.03C116.15 513.64 -3.98 391.3 0.1 253.74C2.36 26.52 279.35 -85.3 438.73 76.66ZM274.15 471.3C377.41 462.71 460.54 381.07 470.98 277.98L451.9 277.81C425.4 276.53 425.72 238.63 452.26 237.81L471.34 237.98C462.76 134.73 381.11 51.6 278.03 41.15L277.86 60.23C276.57 86.74 238.68 86.42 237.86 59.87L238.03 40.79C134.77 49.38 51.64 131.02 41.2 234.1L60.28 234.28C86.78 235.56 86.46 273.46 59.92 274.27L40.84 274.1C49.42 377.36 131.06 460.49 234.15 470.94L234.32 451.86C235.61 425.35 273.5 425.67 274.32 452.22L274.15 471.3ZM348.64 321.74C356.38 329.62 356.27 342.28 348.39 350.02C340.51 357.76 327.84 357.65 320.1 349.77L281.45 310.41C242.28 329.24 195.28 299.16 196.09 255.5C196.33 229.43 213.25 207.34 236.6 199.29L237.23 129.87C238.51 103.36 276.41 103.68 277.22 130.23L276.6 199.65C309.08 210.84 326.03 250.94 309.99 282.39L348.64 321.74ZM276.08 256.7C276.18 246.12 268.24 236.94 257.7 236.11C245.56 235.15 235.39 245.14 236.13 257.29C236.77 267.85 245.8 275.95 256.38 276.05C267.17 276.14 275.99 267.48 276.08 256.7Z" />
</svg>