<svg width="270" height="73" viewBox="0 0 270 73" fill="none" xmlns="http://www.w3.org/2000/svg">
<path d="M78.5902 47.7626V27.0453H84.6381V43.1302H93.9673V47.7626H78.5902ZM105.237 48.0843C103.307 48.0843 101.602 47.7733 100.122 47.1514C98.6637 46.508 97.5163 45.5751 96.6799 44.3526C95.8435 43.1087 95.4253 41.586 95.4253 39.7845V27.0453H101.473V39.1411C101.473 41.6718 102.728 42.9371 105.237 42.9371C106.438 42.9371 107.36 42.6262 108.004 42.0042C108.647 41.3823 108.969 40.4279 108.969 39.1411V27.0453H115.017V39.7845C115.017 41.586 114.598 43.1087 113.762 44.3526C112.947 45.5751 111.8 46.508 110.32 47.1514C108.861 47.7733 107.167 48.0843 105.237 48.0843ZM128.671 48.0843C124.918 48.0843 122.055 47.1621 120.082 45.3177C118.109 43.4733 117.122 40.8676 117.122 37.5005C117.122 34.0261 118.087 31.3668 120.017 29.5224C121.948 27.6565 124.822 26.7236 128.639 26.7236C129.926 26.7236 131.073 26.8201 132.081 27.0132C133.089 27.2062 134.054 27.4742 134.976 27.8174V33.0932C133.132 32.2783 131.159 31.8708 129.057 31.8708C127.106 31.8708 125.658 32.3212 124.714 33.2219C123.771 34.1012 123.299 35.5274 123.299 37.5005C123.299 39.4307 123.792 40.8247 124.779 41.6825C125.787 42.5189 127.234 42.9371 129.122 42.9371C130.151 42.9371 131.148 42.8406 132.113 42.6476C133.1 42.4546 134.076 42.1544 135.041 41.7469V47.0549C134.119 47.3766 133.143 47.6232 132.113 47.7948C131.105 47.9878 129.958 48.0843 128.671 48.0843ZM137.306 47.7626V27.0453H143.354V34.3478L149.627 27.0453H156.511L149.209 35.5381L157.026 47.7626H150.592L145.477 39.3985L143.354 41.779V47.7626H137.306ZM164.955 47.7626V40.1706L157.491 27.0453H163.797L167.979 34.8626L172.161 27.0453H178.466L171.003 40.1706V47.7626H164.955Z" fill="#385645"/>
<path d="M186.677 47.7626V44.7387L195.684 31.6778H187.159V27.0453H203.63V30.198L194.719 43.1302H203.823V47.7626H186.677ZM204.458 47.7626L212.404 27.0453H218.806L226.752 47.7626H220.446L218.709 43.3554H212.468L210.763 47.7626H204.458ZM213.272 39.0124H217.905L215.589 32.9324L213.272 39.0124ZM231.179 47.7626V40.1706L223.716 27.0453H230.021L234.203 34.8626L238.385 27.0453H244.69L237.227 40.1706V47.7626H231.179ZM246.319 47.7626V27.0453H252.206L257.353 37.5648L262.468 27.0453H268.323V47.7626H262.275V37.404L258.961 44.2239H255.712L252.367 37.404V47.7626H246.319Z" fill="#FF6C2E"/>
<g clip-path="url(#clip0_601_1228)">
<path fill-rule="evenodd" clip-rule="evenodd" d="M54.9392 5.9286C52.9027 3.39284 45.3524 0 32.3341 0C21.0315 0 11.7502 3.41313 9.72898 5.9286C8.31871 7.68842 13.4914 39.1825 13.4914 39.1825H51.1666C51.1666 39.1825 56.3495 7.68842 54.9392 5.9286Z" fill="url(#paint0_linear_601_1228)"/>
<g opacity="0.6">
<path fill-rule="evenodd" clip-rule="evenodd" d="M19.9932 34.1414C22.0704 36.5656 27.182 38.2291 33.0726 39.1876H51.177C51.177 39.1876 55.5962 12.268 55.1482 6.81611L54.9344 5.93367C54.9344 5.93367 45.093 28.8721 19.9932 34.1414Z" fill="#203732"/>
</g>
<path fill-rule="evenodd" clip-rule="evenodd" d="M52.5419 30.4646C32.5587 23.6637 14.4899 29.5314 12.1123 30.3682C12.8658 35.3941 13.492 39.1876 13.492 39.1876H51.1672C51.1672 39.1876 51.7934 35.4448 52.5419 30.4646Z" fill="#203732"/>
<g opacity="0.6">
<path fill-rule="evenodd" clip-rule="evenodd" d="M38.312 28.4613H26.6989C26.4289 28.4613 26.1699 28.5682 25.9789 28.7584C25.7879 28.9486 25.6807 29.2066 25.6807 29.4757V36.7583C25.6807 37.0274 25.7879 37.2853 25.9789 37.4756C26.1699 37.6658 26.4289 37.7726 26.6989 37.7726H38.312C38.5821 37.7726 38.8411 37.6658 39.032 37.4756C39.223 37.2853 39.3303 37.0274 39.3303 36.7583V29.4706C39.3289 29.2024 39.2211 28.9458 39.0302 28.7566C38.8394 28.5675 38.5812 28.4613 38.312 28.4613ZM37.8946 35.6781C37.8815 35.8768 37.7901 36.0623 37.6404 36.1943C37.4908 36.3263 37.2948 36.3942 37.0952 36.3831H27.931C27.7314 36.3942 27.5355 36.3263 27.3858 36.1943C27.2361 36.0623 27.1448 35.8768 27.1317 35.6781V30.5508C27.1448 30.3521 27.2361 30.1666 27.3858 30.0346C27.5355 29.9026 27.7314 29.8347 27.931 29.8459H37.0952C37.2948 29.8347 37.4908 29.9026 37.6404 30.0346C37.7901 30.1666 37.8815 30.3521 37.8946 30.5508V35.6781Z" fill="#203732"/>
</g>
<path fill-rule="evenodd" clip-rule="evenodd" d="M39.7681 24.6323H25.3599C25.0281 24.6337 24.7103 24.7655 24.4757 24.9992C24.2411 25.2329 24.1088 25.5495 24.1074 25.8799V34.9326C24.1088 35.2631 24.2411 35.5796 24.4757 35.8133C24.7103 36.047 25.0281 36.1788 25.3599 36.1802H39.7681C40.0998 36.1788 40.4176 36.047 40.6522 35.8133C40.8868 35.5796 41.0192 35.2631 41.0205 34.9326V25.8799C41.0192 25.5495 40.8868 25.2329 40.6522 24.9992C40.4176 24.7655 40.0998 24.6337 39.7681 24.6323ZM38.5309 33.6799C38.5178 33.9011 38.4172 34.108 38.2511 34.2554C38.085 34.4027 37.8671 34.4785 37.645 34.466H27.4625C27.2405 34.4785 27.0226 34.4027 26.8565 34.2554C26.6904 34.108 26.5898 33.9011 26.5767 33.6799V28.0049C26.5898 27.7837 26.6904 27.5768 26.8565 27.4294C27.0226 27.2821 27.2405 27.2063 27.4625 27.2188H37.645C37.8667 27.2077 38.084 27.2839 38.2497 27.431C38.4155 27.5781 38.5165 27.7842 38.5309 28.0049V33.6799Z" fill="#F0C075"/>
<path fill-rule="evenodd" clip-rule="evenodd" d="M41.005 34.9326V25.8799C41.0043 25.5531 40.8745 25.2397 40.6435 25.0076C39.8251 25.8387 38.9415 26.6035 38.0011 27.2949C38.1469 27.3499 38.2731 27.4467 38.3637 27.5731C38.4543 27.6994 38.5053 27.8497 38.5103 28.0049V33.6799C38.4971 33.9011 38.3965 34.108 38.2304 34.2554C38.0644 34.4027 37.8464 34.4785 37.6244 34.466H27.4419C27.2198 34.4785 27.0019 34.4027 26.8358 34.2554C26.6698 34.108 26.5691 33.9011 26.556 33.6799V32.3664C25.7321 32.5104 24.9011 32.6103 24.0664 32.6656V34.9326C24.0677 35.2631 24.2001 35.5796 24.4347 35.8133C24.6693 36.047 24.9871 36.1788 25.3188 36.1802H39.7678C40.0969 36.1749 40.4108 36.0413 40.6421 35.808C40.8734 35.5747 41.0037 35.2605 41.005 34.9326Z" fill="#BB5746"/>
<path d="M59.1607 33.4771C58.8145 30.708 53.7538 31.489 51.6053 31.9556C53.7283 31.3978 58.6006 29.8154 57.6486 27.1884C56.4419 23.8463 54.2934 26.2755 54.2934 26.2755C54.2934 26.2755 55.495 23.2681 51.9566 23.7093C49.1767 24.0542 49.9608 29.0953 50.4292 31.2355C49.8691 29.1206 48.2807 24.2672 45.6434 25.2156C42.2883 26.4175 44.727 28.5577 44.727 28.5577C44.727 28.5577 41.7079 27.3608 42.1508 30.8855C42.497 33.6546 47.5577 32.8736 49.7062 32.407C47.5832 32.9649 42.7109 34.5472 43.6629 37.1742C44.8695 40.5163 47.018 38.0871 47.018 38.0871C47.018 38.0871 45.8165 41.0945 49.3549 40.6533C52.1347 40.3084 51.3507 35.2673 50.8823 33.1271C51.4423 35.242 53.0308 40.0954 55.6681 39.147C59.0232 37.9451 56.5845 35.8049 56.5845 35.8049C56.5845 35.8049 59.624 36.9967 59.1607 33.4771Z" fill="url(#paint1_linear_601_1228)"/>
<g opacity="0.6">
<path d="M59.1909 34.3849C59.1909 34.3849 58.7785 35.8353 56.5791 35.8049C56.569 35.8049 59.0229 36.7026 59.1909 34.3849Z" fill="#A14E45"/>
</g>
<g opacity="0.6">
<path d="M57.1135 38.2798C57.1135 38.2798 53.6922 40.0903 51.4775 35.0746C51.4775 35.0543 53.3918 41.6777 57.1135 38.2798Z" fill="#A14E45"/>
</g>
<g opacity="0.6">
<path d="M51.3404 37.3264C51.3404 37.3264 49.4821 41.4799 46.8652 39.5781C46.8652 39.5781 46.9671 40.6482 48.6421 40.6938C50.3171 40.7395 51.2233 39.9737 51.3404 37.3264Z" fill="#A14E45"/>
</g>
<g opacity="0.6">
<path d="M47.0123 38.082C47.0123 38.082 44.5634 39.355 43.54 36.6417C43.54 36.6417 44.3139 40.6178 47.0123 38.082Z" fill="#A14E45"/>
</g>
<g opacity="0.6">
<path d="M57.0776 26.0726C57.0776 26.0726 57.9736 27.6905 56.7314 28.8924C55.0564 30.5204 51.6045 31.9353 51.6045 31.9353C51.6045 31.9353 56.8128 30.6573 57.6274 28.5323C57.7589 28.1102 57.7774 27.6611 57.6809 27.2296C57.5845 26.7982 57.3765 26.3993 57.0776 26.0726Z" fill="#A14E45"/>
</g>
<g opacity="0.6">
<path d="M54.293 26.2704C54.293 26.2704 54.8632 23.8209 52.3838 23.6637C52.3838 23.6637 55.2349 23.2985 54.293 26.2704Z" fill="#A14E45"/>
</g>
<g opacity="0.6">
<path d="M45.4287 25.2866C45.8943 25.2129 46.3714 25.2758 46.8017 25.4676C47.2321 25.6594 47.5971 25.9719 47.8521 26.3668C49.1402 28.0506 50.3978 31.2253 50.3978 31.2253C50.3978 31.2253 49.6748 28.299 48.4427 26.5342C47.2107 24.7693 46.0448 24.9874 45.4287 25.2866Z" fill="#A14E45"/>
</g>
<g opacity="0.6">
<path d="M42.1963 31.1442C42.1963 31.1442 43.7237 33.3199 49.7008 32.4019C49.7008 32.4019 43.3316 34.3747 42.1963 31.1442Z" fill="#A14E45"/>
</g>
<g opacity="0.6">
<path d="M50.6523 32.194C50.6523 32.194 54.0177 28.0201 53.3762 27.6702C52.7347 27.3202 51.1004 31.2152 50.6523 32.194Z" fill="#A14E45"/>
</g>
<g opacity="0.6">
<path d="M50.6525 32.194C50.6525 32.194 46.8392 29.0801 46.2333 29.6177C45.6275 30.1552 50.6525 32.194 50.6525 32.194Z" fill="#A14E45"/>
</g>
<g opacity="0.6">
<path d="M50.6529 32.194C50.6529 32.194 47.5982 36.1853 47.9698 36.525C48.5604 37.0525 50.6682 32.6403 50.6529 32.194Z" fill="#A14E45"/>
</g>
<g opacity="0.6">
<path d="M50.6523 32.194C50.6523 32.194 55.4534 34.0958 55.321 34.8362C55.1886 35.5767 50.6523 32.194 50.6523 32.194Z" fill="#A14E45"/>
</g>
<g opacity="0.3">
<path d="M51.6052 31.9505C53.7283 31.3927 58.6006 29.8104 57.6485 27.1833C57.2209 25.9966 56.6761 25.5401 56.1466 25.4438C56.1466 25.4438 51.2896 35.7136 43.5509 36.2563C43.5082 36.5643 43.5432 36.878 43.6527 37.1691C44.8593 40.5113 47.0078 38.082 47.0078 38.082C47.0078 38.082 45.8063 41.0894 49.3447 40.6482C52.1245 40.3033 51.3405 35.2622 50.8721 33.1221C51.4321 35.2369 53.0206 40.0903 55.6578 39.142C59.013 37.94 56.5743 35.7998 56.5743 35.7998C56.5743 35.7998 59.5934 36.9967 59.1504 33.472C58.8144 30.708 53.7537 31.489 51.6052 31.9505Z" fill="#A14E45"/>
</g>
<path d="M32.3294 49.1176C50.1844 49.1176 64.6588 45.907 64.6588 41.9465C64.6588 37.986 50.1844 34.7754 32.3294 34.7754C14.4744 34.7754 0 37.986 0 41.9465C0 45.907 14.4744 49.1176 32.3294 49.1176Z" fill="#3F5F4A"/>
<path d="M32.3289 47.018C42.5892 47.018 50.9069 45.1743 50.9069 42.8999C50.9069 40.6256 42.5892 38.7819 32.3289 38.7819C22.0686 38.7819 13.751 40.6256 13.751 42.8999C13.751 45.1743 22.0686 47.018 32.3289 47.018Z" fill="#203732"/>
<g opacity="0.6">
<path fill-rule="evenodd" clip-rule="evenodd" d="M64.6638 41.9414C64.6638 38.3102 52.4754 35.3079 36.662 34.8413C37.2729 35.2622 40.1189 37.5901 29.9466 38.7819C24.0815 39.4665 28.0425 45.1263 35.5164 49.0821C51.8797 48.722 64.6638 45.6639 64.6638 41.9414Z" fill="#203732"/>
</g>
<path fill-rule="evenodd" clip-rule="evenodd" d="M16.0319 49.1125C15.8103 48.4454 15.3663 47.8738 14.7736 47.4928C14.1808 47.1118 13.475 46.9443 12.7735 47.018C10.1413 47.1549 6.93385 53.0582 11.3836 56.9379C15.8333 60.8176 17.1927 55.9236 17.1927 55.9236L16.0319 49.1125Z" fill="#F5D6B5"/>
<path fill-rule="evenodd" clip-rule="evenodd" d="M14.4128 54.042C14.9983 52.9365 15.706 52.7387 16.3017 52.8401L15.8384 50.0457C15.6748 49.5498 15.3455 49.1248 14.9055 48.8415C14.4654 48.5582 13.9411 48.4337 13.42 48.4887C11.465 48.5902 9.0874 52.977 12.4018 55.8577C13.8681 57.1407 14.8863 57.1306 15.5584 56.73C14.6419 56.3039 13.6848 55.4266 14.4128 54.042Z" fill="#A14E45"/>
<path fill-rule="evenodd" clip-rule="evenodd" d="M48.6413 49.1125C48.8628 48.4454 49.3069 47.8738 49.8996 47.4928C50.4924 47.1118 51.1981 46.9443 51.8997 47.018C54.5318 47.1549 57.7393 53.0582 53.2896 56.9379C48.8398 60.8176 47.4805 55.9236 47.4805 55.9236L48.6413 49.1125Z" fill="#F5D6B5"/>
<path fill-rule="evenodd" clip-rule="evenodd" d="M50.2609 54.042C49.6754 52.9365 48.9677 52.7387 48.3721 52.8401L48.8506 50.0457C49.0142 49.5498 49.3435 49.1248 49.7836 48.8415C50.2237 48.5582 50.7479 48.4337 51.269 48.4887C53.224 48.5902 55.6016 52.977 52.2872 55.8577C50.821 57.1407 49.8027 57.1306 49.1307 56.73C50.0318 56.3039 50.9686 55.4266 50.2609 54.042Z" fill="#A14E45"/>
<path fill-rule="evenodd" clip-rule="evenodd" d="M32.3292 38.787C24.5803 38.787 17.9363 39.8418 15.1514 41.3227V54.8738C15.1514 57.7341 22.6864 66.5383 32.3292 66.5383C42.14 66.5383 49.5071 57.7392 49.5071 54.8738V41.3227C46.7222 39.8317 40.0832 38.787 32.3292 38.787Z" fill="url(#paint2_linear_601_1228)"/>
<path d="M37.0435 51.6382C36.8836 51.6364 36.7264 51.5973 36.5846 51.5238C36.4427 51.4503 36.3203 51.3446 36.2271 51.2152C36.1339 51.0859 36.0726 50.9364 36.0481 50.7791C36.0237 50.6217 36.0367 50.4608 36.0863 50.3094C36.127 50.1978 37.0435 47.5353 39.4211 46.8202C41.0045 46.3435 42.7609 46.8202 44.6396 48.296C45.0825 48.6358 45.2811 49.3965 44.8178 49.7059C44.5531 49.8834 44.2374 49.6755 43.7996 49.3357C43.2617 48.9405 42.6361 48.6803 41.9759 48.577C41.3157 48.4737 40.6401 48.5304 40.0066 48.7423C38.6421 49.1531 38.0108 50.9281 38.0057 50.9434C37.9385 51.1449 37.8096 51.3205 37.6369 51.4451C37.4643 51.5698 37.2567 51.6373 37.0435 51.6382Z" fill="#A14E45"/>
<path d="M35.5366 43.2296L35.5977 43.1738C35.6537 43.1282 35.7301 43.0622 35.8115 43.0064C36.0367 42.8369 36.2732 42.6828 36.5192 42.5449C36.8634 42.3532 37.2248 42.1936 37.5986 42.0682C37.8125 41.9991 38.0301 41.9416 38.2502 41.8958C38.4802 41.8493 38.7134 41.8205 38.9477 41.8096C39.1814 41.7872 39.4167 41.7872 39.6503 41.8096C39.8739 41.8295 40.0953 41.8685 40.3122 41.9262C40.5123 41.9764 40.7081 42.0426 40.8977 42.124C41.0747 42.1869 41.2452 42.2667 41.4068 42.3624C41.5396 42.4289 41.6672 42.5052 41.7886 42.5906L42.0585 42.7934L42.2927 42.9709C42.4277 43.0496 42.5258 43.1785 42.5654 43.3293C42.6051 43.48 42.583 43.6403 42.504 43.7748C42.425 43.9093 42.2956 44.007 42.1442 44.0465C41.9929 44.086 41.832 44.0639 41.697 43.9852L41.6104 43.9497L41.4017 43.8585L41.1624 43.752C41.0603 43.7091 40.9547 43.6752 40.8468 43.6505C40.728 43.6087 40.6051 43.5798 40.4802 43.5643C40.3458 43.5401 40.2095 43.5282 40.0729 43.5288C39.9324 43.5153 39.7909 43.5153 39.6503 43.5288C39.5065 43.5435 39.3648 43.5741 39.2278 43.6201C39.0902 43.659 38.9557 43.7081 38.8255 43.7672C38.6983 43.828 38.571 43.894 38.4539 43.965C38.2384 44.1003 38.0356 44.2548 37.848 44.4265C37.7168 44.5461 37.5943 44.675 37.4815 44.8119C37.4566 44.8403 37.4345 44.8708 37.4153 44.9032L37.3847 44.9488C37.2781 45.0927 37.1422 45.2125 36.9858 45.3003C36.8294 45.3881 36.6562 45.442 36.4774 45.4584C36.2987 45.4748 36.1185 45.4533 35.9486 45.3954C35.7788 45.3375 35.6232 45.2445 35.492 45.1225C35.3608 45.0004 35.257 44.8521 35.1874 44.6873C35.1178 44.5225 35.084 44.3448 35.0882 44.1661C35.0925 43.9873 35.1346 43.8114 35.2119 43.65C35.2891 43.4886 35.3998 43.3454 35.5366 43.2296Z" fill="#DE8344"/>
<path d="M27.7372 44.964L27.7066 44.9184C27.6877 44.8859 27.6655 44.8553 27.6404 44.8271C27.5292 44.6888 27.4084 44.5583 27.279 44.4366C27.0916 44.2616 26.8889 44.1038 26.6731 43.965C26.556 43.894 26.4287 43.823 26.3014 43.757C26.1701 43.694 26.0339 43.6414 25.8941 43.5998C25.7556 43.5519 25.6122 43.5196 25.4665 43.5035C25.3252 43.4797 25.182 43.4695 25.0388 43.473C24.9005 43.472 24.7625 43.4839 24.6264 43.5085C24.4982 43.5216 24.3719 43.5489 24.2497 43.5897C24.1403 43.613 24.033 43.6452 23.9289 43.686L23.6846 43.7925L23.4707 43.8838L23.3943 43.9142C23.2769 43.9815 23.1374 43.9995 23.0066 43.9643C22.8758 43.9291 22.7644 43.8436 22.6968 43.7266C22.6293 43.6096 22.6113 43.4706 22.6466 43.3403C22.6819 43.21 22.7677 43.0991 22.8852 43.0318L23.1143 42.8543L23.3791 42.6514C23.4987 42.5646 23.6247 42.4866 23.7558 42.4182C23.9076 42.3241 24.0678 42.2443 24.2344 42.1798C24.4221 42.0981 24.6162 42.0319 24.8148 41.982C25.0298 41.9225 25.2495 41.8818 25.4716 41.8603C25.7035 41.8376 25.9371 41.8376 26.1691 41.8603C26.4015 41.8684 26.6329 41.8938 26.8615 41.9364C27.4703 42.0546 28.0563 42.2686 28.5976 42.5703C28.8453 42.7044 29.0834 42.8552 29.3104 43.0217C29.3918 43.0775 29.4682 43.1434 29.5242 43.189L29.5904 43.2397C29.8503 43.4556 30.0135 43.7655 30.0441 44.1013C30.0746 44.437 29.97 44.7711 29.7533 45.03C29.5366 45.2889 29.2255 45.4515 28.8884 45.4819C28.5514 45.5123 28.216 45.4082 27.9561 45.1923C27.8746 45.1248 27.8011 45.0482 27.7372 44.964Z" fill="#DE8344"/>
<path fill-rule="evenodd" clip-rule="evenodd" d="M48.01 40.6888C48.01 40.6888 50.6931 53.8189 41.9871 57.9826C38.6625 59.5751 33.556 59.6613 31.7028 59.6359C29.4117 59.5954 25.4456 59.3164 22.6658 57.9826C13.9649 53.8189 16.6429 40.6888 16.6429 40.6888L15.1562 41.3227V56.7959C15.1562 64.5046 22.6709 69.8855 22.6709 69.8855C22.6709 69.8855 22.2382 69.216 21.7341 66.5332C25.0994 71.3968 32.3341 72.9081 32.3341 72.9081C32.3341 72.9081 39.5688 71.3866 42.9341 66.5332C42.4249 69.216 41.9922 69.8855 41.9922 69.8855C41.9922 69.8855 49.5069 64.4995 49.5069 56.7959V41.3227L48.01 40.6888Z" fill="url(#paint3_linear_601_1228)"/>
<path fill-rule="evenodd" clip-rule="evenodd" d="M28.6533 58.6571C28.6533 58.6571 28.7959 62.9324 32.487 62.9324C36.1782 62.9324 36.0102 58.6571 36.0102 58.6571C36.0102 58.6571 31.9881 54.7977 28.6533 58.6571Z" fill="#EBB081"/>
<path fill-rule="evenodd" clip-rule="evenodd" d="M29.4785 58.6926C29.4785 58.6926 29.5905 62.0094 32.4569 62.0094C35.3233 62.0094 35.1909 58.6926 35.1909 58.6926C35.1909 58.6926 32.0649 55.6954 29.4785 58.6926Z" fill="#A14E45"/>
<path fill-rule="evenodd" clip-rule="evenodd" d="M29.9521 59.4483C29.9521 59.4483 30.222 59.9554 32.233 59.9554C34.2441 59.9554 34.7074 59.4483 34.7074 59.4483L32.4061 58.15L29.9521 59.4483Z" fill="white"/>
<g opacity="0.5">
<path fill-rule="evenodd" clip-rule="evenodd" d="M45.8771 57.1611C45.4291 57.6074 44.528 57.8153 43.3977 57.7037C44.752 57.1965 44.0392 55.4469 43.5046 55.0462C43.7184 55.8019 43.0362 57.8051 38.7494 55.381C34.4626 52.9568 32.5992 54.3261 32.2988 54.5999C32.0035 54.3311 30.1757 52.9365 25.8533 55.381C21.5308 57.8254 20.8842 55.8019 21.093 55.0462C20.5584 55.4469 19.8456 57.2118 21.2202 57.7088C20.1256 57.8051 19.255 57.5921 18.8223 57.1611C19.5151 58.2202 20.4117 59.1322 21.4603 59.8442C22.5089 60.5563 23.6888 61.0543 24.9318 61.3096C24.1054 61.6651 23.2547 61.9616 22.3861 62.1971C29.0455 63.541 32.3192 59.3672 32.3242 59.3621C32.3242 59.3621 35.5979 63.5461 42.2623 62.2021C41.3938 61.9667 40.5431 61.6701 39.7167 61.3146C40.9692 61.065 42.1591 60.5691 43.2169 59.8559C44.2747 59.1427 45.179 58.2266 45.8771 57.1611Z" fill="#A14E45"/>
</g>
<path fill-rule="evenodd" clip-rule="evenodd" d="M45.8771 56.1569C45.4291 56.6032 44.528 56.8111 43.3977 56.6995C44.752 56.1924 44.0392 54.4427 43.5046 54.0421C43.7184 54.7977 43.0362 56.801 38.7494 54.3768C34.4626 51.9526 32.5992 53.3219 32.2988 53.5958C32.0035 53.3219 30.1757 51.9323 25.8533 54.3768C21.5308 56.8212 20.8842 54.7977 21.093 54.0421C20.5584 54.4427 19.8456 56.2076 21.2202 56.7046C20.1256 56.801 19.255 56.588 18.8223 56.1569C19.5151 57.2161 20.4117 58.128 21.4603 58.8401C22.5089 59.5521 23.6888 60.0501 24.9318 60.3054C24.1053 60.6607 23.2547 60.9573 22.3861 61.1929C29.0455 62.5368 32.3192 58.363 32.3242 58.3579C32.3242 58.3579 35.5979 62.5419 42.2623 61.198C41.3938 60.9624 40.5432 60.6658 39.7167 60.3105C40.9691 60.0605 42.1589 59.5645 43.2166 58.8514C44.2744 58.1382 45.1788 57.2222 45.8771 56.1569Z" fill="url(#paint4_linear_601_1228)"/>
<path d="M32.5027 55.3454C33.619 55.3454 34.5239 53.3995 34.5239 50.9992C34.5239 48.5988 33.619 46.6529 32.5027 46.6529C31.3864 46.6529 30.4814 48.5988 30.4814 50.9992C30.4814 53.3995 31.3864 55.3454 32.5027 55.3454Z" fill="#EBB081"/>
<path d="M27.6399 51.6382C27.7998 51.6364 27.957 51.5973 28.0988 51.5238C28.2406 51.4503 28.3631 51.3446 28.4563 51.2152C28.5495 51.0859 28.6108 50.9364 28.6353 50.7791C28.6597 50.6217 28.6466 50.4608 28.5971 50.3094C28.5563 50.1978 27.6399 47.5353 25.2623 46.8202C23.6789 46.3435 21.9224 46.8202 20.0438 48.296C19.6008 48.6358 19.4023 49.3965 19.8656 49.7059C20.1303 49.8834 20.446 49.6755 20.8838 49.3357C21.4217 48.9405 22.0472 48.6803 22.7075 48.577C23.3677 48.4737 24.0432 48.5304 24.6768 48.7423C26.0413 49.1531 26.6726 50.9281 26.6777 50.9434C26.7448 51.1449 26.8738 51.3205 27.0465 51.4451C27.2191 51.5698 27.4267 51.6373 27.6399 51.6382Z" fill="#A14E45"/>
<g opacity="0.5">
<path fill-rule="evenodd" clip-rule="evenodd" d="M15.1562 44.4671C15.1562 44.4671 18.379 41.9313 32.3341 41.9313C46.2892 41.9313 49.512 44.4671 49.512 44.4671V41.3227C49.512 41.3227 45.6121 38.787 31.5551 38.787C19.6111 38.787 15.1613 41.3227 15.1613 41.3227L15.1562 44.4671Z" fill="#A14E45"/>
</g>
</g>
<defs>
<linearGradient id="paint0_linear_601_1228" x1="32.3341" y1="0" x2="32.3341" y2="39.1825" gradientUnits="userSpaceOnUse">
<stop stop-color="#3F5F4A"/>
<stop offset="1" stop-color="#294239"/>
</linearGradient>
<linearGradient id="paint1_linear_601_1228" x1="49.2837" y1="24.1575" x2="52.013" y2="40.2033" gradientUnits="userSpaceOnUse">
<stop stop-color="#E18C44"/>
<stop offset="1" stop-color="#D97043"/>
</linearGradient>
<linearGradient id="paint2_linear_601_1228" x1="32.3292" y1="66.5383" x2="32.3292" y2="38.7768" gradientUnits="userSpaceOnUse">
<stop stop-color="#F5D6B5"/>
<stop offset="1" stop-color="#E6AF8D"/>
</linearGradient>
<linearGradient id="paint3_linear_601_1228" x1="32.3122" y1="72.8991" x2="32.3122" y2="40.6959" gradientUnits="userSpaceOnUse">
<stop stop-color="#FF6C2E"/>
<stop offset="1" stop-color="#FA873A"/>
</linearGradient>
<linearGradient id="paint4_linear_601_1228" x1="32.3344" y1="61.4617" x2="32.3344" y2="52.9568" gradientUnits="userSpaceOnUse">
<stop stop-color="#FF6C2E"/>
<stop offset="1" stop-color="#FA873A"/>
</linearGradient>
<clipPath id="clip0_601_1228">
<rect width="64.6639" height="72.9132" fill="white"/>
</clipPath>
</defs>
</svg>
