<svg xmlns="http://www.w3.org/2000/svg" viewBox="0 0 492 492" width="26" height="26">
	<style>
		tspan { white-space:pre }
		.shp0 { fill: #b5b5b5; } 
	</style>
	<path id="XMLID_298_" class="shp0" d="M245.9 0C110.31 0 0 110.31 0 245.9C0 381.49 110.31 491.8 245.9 491.8C311.58 491.8 374.14 465.31 420.58 418.86C428.3 411.14 427.43 398.19 419.6 390.5L380.79 352.27C389.16 340.8 390.26 326.86 383.36 313.61C373.94 295.53 359.94 281.05 341.79 270.61C334.79 266.57 328.18 264.59 321.59 264.6C319.02 264.6 316.43 264.91 313.92 265.51C305.54 267.55 297.49 271.47 289.3 277.49C286.74 279.41 283.57 280.37 279.93 280.37C275.49 280.37 270.68 278.84 267.39 276.4C243.48 258.58 223.21 238.29 205.39 214.4C201.9 209.7 199.11 199.47 204.28 192.46C210.32 184.28 214.23 176.24 216.26 167.85C218.45 158.81 216.78 149.69 211.18 140.01C200.73 121.83 186.25 107.85 168.16 98.42C162.3 95.37 156.31 93.8 150.33 93.8C140.36 93.8 131.02 98.15 123.34 106.34C116.27 113.86 110.02 121.83 102.82 131.46C96.22 140.29 96.77 150.48 97.24 159.47L97.25 159.65C98.07 171.07 102.33 184.56 110.28 200.89C123.73 228.56 142.83 254.82 168.67 281.19C173.98 286.61 195.15 307.79 200.58 313.1C226.96 338.95 253.23 358.05 280.88 371.5C297.22 379.45 310.71 383.71 322.12 384.53L322.31 384.53C324.66 384.65 327.17 384.77 329.61 384.77C335.44 384.77 342.91 384.07 349.64 379.36L375.18 404.52C338.74 434.32 293.6 450.65 245.9 450.65C133.01 450.65 41.16 358.8 41.16 245.9C41.16 133.01 133.01 41.16 245.9 41.16C358.8 41.16 450.65 133.01 450.65 245.9C450.65 257.27 459.86 266.48 471.23 266.48C482.59 266.48 491.8 257.27 491.8 245.9C491.8 110.31 381.49 0 245.9 0Z" />
	<g id="Layer">
	</g>
	<g id="Layer">
	</g>
	<g id="Layer">
	</g>
	<g id="Layer">
	</g>
	<g id="Layer">
	</g>
	<g id="Layer">
	</g>
	<g id="Layer">
	</g>
	<g id="Layer">
	</g>
	<g id="Layer">
	</g>
	<g id="Layer">
	</g>
	<g id="Layer">
	</g>
	<g id="Layer">
	</g>
	<g id="Layer">
	</g>
	<g id="Layer">
	</g>
	<g id="Layer">
	</g>
</svg>