<svg xmlns="http://www.w3.org/2000/svg" viewBox="0 0 48 40" width="48" height="40">
	<style>
		tspan { white-space:pre }
		.shp0 { fill: #fff } 
	</style>
	<path id="Layer" class="shp0" d="M29.38 0.55C28.58 -0.21 27.31 -0.18 26.55 0.62C25.79 1.42 25.82 2.69 26.62 3.45L41.96 18L2 18C0.9 18 0 18.9 0 20C0 21.1 0.9 22 2 22L41.9 22L26.62 36.55C25.82 37.31 25.79 38.58 26.55 39.38C26.95 39.79 27.47 40 28 40C28.5 40 28.99 39.82 29.38 39.45L46.83 22.83C47.58 22.07 48 21.07 48 20C48 18.93 47.58 17.93 46.79 17.14L29.38 0.55Z" />
</svg>