<svg width="32" height="32" viewBox="0 0 32 32" fill="none" xmlns="http://www.w3.org/2000/svg">
<path d="M26.918 21.5459C26.918 18.7845 24.6794 16.5459 21.918 16.5459H19.9532V17.3215C19.9532 20.083 22.1918 22.3215 24.9532 22.3215H26.918V21.5459Z" fill="#357BE3"/>
<path d="M26.918 21.5459C26.918 18.7845 24.6794 16.5459 21.918 16.5459H19.9532V17.3215C19.9532 20.083 22.1918 22.3215 24.9532 22.3215H26.918V21.5459Z" fill="url(#paint0_linear)"/>
<path d="M19.9531 10.4639C19.9531 7.70244 22.1917 5.46387 24.9531 5.46387H32.0003V10.4542C32.0003 13.2156 29.7617 15.4542 27.0003 15.4542H19.9531V10.4639Z" fill="#357BE3"/>
<path d="M18.6357 10C18.6357 4.47715 14.1586 0 8.63574 0H0.000324249V5.45373C0.000324249 10.9766 4.47748 15.4537 10.0003 15.4537H18.6357V10Z" fill="#357BE3"/>
<path d="M18.6357 10C18.6357 4.47715 14.1586 0 8.63574 0H0.000324249V5.45373C0.000324249 10.9766 4.47748 15.4537 10.0003 15.4537H18.6357V10Z" fill="url(#paint1_linear)"/>
<path d="M0 26.5459C0 21.023 4.47715 16.5459 10 16.5459H18.6354V21.9996C18.6354 27.5225 14.1583 31.9996 8.63542 31.9996H0V26.5459Z" fill="#357BE3"/>
<defs>
<linearGradient id="paint0_linear" x1="22.8952" y1="31.2016" x2="17.3319" y2="19.6327" gradientUnits="userSpaceOnUse">
<stop stop-color="#D8F3D0"/>
<stop offset="1" stop-color="#8DCA5D"/>
</linearGradient>
<linearGradient id="paint1_linear" x1="7.87218" y1="39.2138" x2="-7.01358" y2="8.25933" gradientUnits="userSpaceOnUse">
<stop stop-color="#D8F3D0"/>
<stop offset="1" stop-color="#8DCA5D"/>
</linearGradient>
</defs>
</svg>
